<?xml version="1.0" encoding="UTF-8"?>
<svg width="40px" height="40px" viewBox="0 0 40 40" version="1.1" xmlns="http://www.w3.org/2000/svg" xmlns:xlink="http://www.w3.org/1999/xlink">
    <!-- Generator: Sketch 55.2 (78181) - https://sketchapp.com -->
    <title>Icon</title>
    <desc>Created with Sketch.</desc>
    <defs>
        <linearGradient x1="50%" y1="0%" x2="50%" y2="100%" id="linearGradient-1">
            <stop stop-color="#B979FF" offset="0%"></stop>
            <stop stop-color="#9C48F8" offset="100%"></stop>
        </linearGradient>
        <linearGradient x1="50%" y1="0%" x2="50%" y2="100%" id="linearGradient-2">
            <stop stop-color="#FFFFFF" offset="0%"></stop>
            <stop stop-color="#E4E5FF" offset="100%"></stop>
        </linearGradient>
    </defs>
    <g id="Symbols" stroke="none" stroke-width="1" fill="none" fill-rule="evenodd">
        <g id="Desktop-/-Header-/-Pop-Up" transform="translate(-512.000000, -283.000000)">
            <g id="Pop-Up" transform="translate(0.000000, 120.000000)">
                <g id="Groups" transform="translate(286.000000, 40.000000)">
                    <g id="System" transform="translate(226.000000, 0.000000)">
                        <g id="SMS" transform="translate(0.000000, 123.000000)">
                            <g id="Icon">
                                <rect id="Rectangle" fill="url(#linearGradient-1)" x="0" y="0" width="40" height="40" rx="10.6666667"></rect>
                                <path d="M11.2998929,17.3300977 C11.4779745,17.3300977 11.6520524,17.3800228 11.8000897,17.4735528 L17.1070123,20.8264673 C17.4552031,21.0840367 17.7862166,21.3027942 18.1000528,21.4827399 L18.1852186,21.5308538 C18.8772612,21.9159247 19.4840915,22.1084602 20.0057095,22.1084602 C20.7189422,22.1084602 21.5897713,21.7484886 22.6181969,21.0285454 L22.7107159,20.9631106 C22.7416961,20.9409783 22.7728166,20.9185251 22.8040776,20.8957513 L22.8982819,20.8264673 L28.1995833,17.4744326 C28.6126297,17.2132617 29.1715392,17.3179282 29.4479425,17.708212 C29.5470448,17.8481453 29.5999487,18.0127293 29.5999487,18.1811038 L29.5999487,25.4993992 C29.5999487,26.4386151 28.7941572,27.2 27.800163,27.2 L12.1997857,27.2 C11.2057915,27.2 10.4,26.4386151 10.4,25.4993992 L10.4,18.1803981 C10.4,17.7107902 10.8028958,17.3300977 11.2998929,17.3300977 Z M27.8201515,12.8 C28.8126371,12.8 29.6,13.5541418 29.6,14.4155913 C29.6,15.0869623 29.2218255,15.6298793 28.4654765,16.0443423 L20.955048,20.7695766 C20.6289631,20.945101 20.3106083,21.0328633 19.9999835,21.0328633 C19.6893587,21.0328633 19.3701893,20.945101 19.0424752,20.7695766 L11.5631579,16.0443423 C10.7877315,15.6640884 10.4000183,15.1450998 10.4000183,14.4873765 C10.4000183,13.4771189 11.2718854,12.8 12.2017228,12.8 L27.8201515,12.8 Z" id="Shape" fill="url(#linearGradient-2)" fill-rule="nonzero"></path>
                            </g>
                        </g>
                    </g>
                </g>
            </g>
        </g>
    </g>
</svg>