<?xml version="1.0" encoding="UTF-8"?>
<svg width="40px" height="40px" viewBox="0 0 40 40" version="1.1" xmlns="http://www.w3.org/2000/svg" xmlns:xlink="http://www.w3.org/1999/xlink">
    <!-- Generator: Sketch 55.2 (78181) - https://sketchapp.com -->
    <title>Icon</title>
    <desc>Created with Sketch.</desc>
    <defs>
        <linearGradient x1="50%" y1="0%" x2="50%" y2="100%" id="linearGradient-1">
            <stop stop-color="#949DFF" offset="0%"></stop>
            <stop stop-color="#5D6AF8" offset="100%"></stop>
        </linearGradient>
        <linearGradient x1="50%" y1="0%" x2="50%" y2="100%" id="linearGradient-2">
            <stop stop-color="#FFFFFF" offset="0%"></stop>
            <stop stop-color="#E4E5FF" offset="100%"></stop>
        </linearGradient>
    </defs>
    <g id="Symbols" stroke="none" stroke-width="1" fill="none" fill-rule="evenodd">
        <g id="Desktop-/-Header-/-Pop-Up" transform="translate(-512.000000, -357.000000)">
            <g id="Pop-Up" transform="translate(0.000000, 120.000000)">
                <g id="Groups" transform="translate(286.000000, 40.000000)">
                    <g id="System" transform="translate(226.000000, 0.000000)">
                        <g id="SMS-Copy-2" transform="translate(0.000000, 197.000000)">
                            <g id="Icon">
                                <rect id="Rectangle" fill="url(#linearGradient-1)" x="0" y="0" width="40" height="40" rx="10.6666667"></rect>
                                <path d="M17.9944365,28.4654995 C17.9969634,28.4671089 17.998824,28.4683355 18,28.4691671 C17.3830612,29.8063171 15.6686743,31.3333333 14,31.3333333 C14.4490792,30.3762946 15.0243955,27.5962507 14,26.66863 C11.5715011,24.8437157 10,21.938713 10,18.6666667 C10,13.1438192 14.4771525,8.66666667 20,8.66666667 C25.5228475,8.66666667 30,13.1438192 30,18.6666667 C30,24.1895142 25.5228475,28.6666667 20,28.6666667 C19.3131025,28.6666667 18.6423808,28.5974103 17.9944365,28.4654995 Z M20,20 C20.7363797,20 21.3333333,19.4030463 21.3333333,18.6666667 C21.3333333,17.930287 20.7363797,17.3333333 20,17.3333333 C19.2636203,17.3333333 18.6666667,17.930287 18.6666667,18.6666667 C18.6666667,19.4030463 19.2636203,20 20,20 Z M24.6666667,20 C25.4030463,20 26,19.4030463 26,18.6666667 C26,17.930287 25.4030463,17.3333333 24.6666667,17.3333333 C23.930287,17.3333333 23.3333333,17.930287 23.3333333,18.6666667 C23.3333333,19.4030463 23.930287,20 24.6666667,20 Z M15.3333333,20 C16.069713,20 16.6666667,19.4030463 16.6666667,18.6666667 C16.6666667,17.930287 16.069713,17.3333333 15.3333333,17.3333333 C14.5969537,17.3333333 14,17.930287 14,18.6666667 C14,19.4030463 14.5969537,20 15.3333333,20 Z" id="Combined-Shape-Copy-6" fill="url(#linearGradient-2)" fill-rule="nonzero"></path>
                            </g>
                        </g>
                    </g>
                </g>
            </g>
        </g>
    </g>
</svg>