<?xml version="1.0" encoding="UTF-8"?>
<svg width="47px" height="57px" viewBox="0 0 47 57" version="1.1" xmlns="http://www.w3.org/2000/svg" xmlns:xlink="http://www.w3.org/1999/xlink">
    <!-- Generator: Sketch 55.2 (78181) - https://sketchapp.com -->
    <title>Logo</title>
    <desc>Created with Sketch.</desc>
    <defs>
        <linearGradient x1="50%" y1="-2.48949813e-15%" x2="50%" y2="100%" id="linearGradient-1">
            <stop stop-color="#000000" stop-opacity="0" offset="0%"></stop>
            <stop stop-color="#000000" offset="100%"></stop>
        </linearGradient>
        <filter x="-48.8%" y="-36.2%" width="197.6%" height="172.4%" filterUnits="objectBoundingBox" id="filter-2">
            <feGaussianBlur stdDeviation="4.88888889" in="SourceGraphic"></feGaussianBlur>
        </filter>
        <filter x="-16.3%" y="-12.1%" width="132.5%" height="124.1%" filterUnits="objectBoundingBox" id="filter-3">
            <feGaussianBlur stdDeviation="1.62962963" in="SourceGraphic"></feGaussianBlur>
        </filter>
        <linearGradient x1="50%" y1="-2.48949813e-15%" x2="50%" y2="100%" id="linearGradient-4">
            <stop stop-color="#000000" stop-opacity="0" offset="0%"></stop>
            <stop stop-color="#000000" offset="100%"></stop>
        </linearGradient>
        <filter x="-33.4%" y="-16.4%" width="166.8%" height="132.9%" filterUnits="objectBoundingBox" id="filter-5">
            <feGaussianBlur stdDeviation="1.62962963" in="SourceGraphic"></feGaussianBlur>
        </filter>
        <linearGradient x1="-1.11022302e-14%" y1="50%" x2="100%" y2="50%" id="linearGradient-6">
            <stop stop-color="#367AF5" offset="0%"></stop>
            <stop stop-color="#66D2F9" offset="100%"></stop>
        </linearGradient>
        <path d="M11.8436413,10.201457 C11.2514625,3.99479032 15.7044935,-2.31584299e-14 20.4982634,-2.31584299e-14 C23.2348566,-2.31584299e-14 25.3161428,1.19534325 26.8316516,2.81006189 C27.7558784,3.79479137 28.8664375,4.2393357 30.0641197,4.42570715 C28.8433747,5.34955347 27.8649523,5.58671651 26.8300264,5.63310484 C25.5720294,5.68949184 24.2692499,6.29002284 23.4394104,7.47403685 C22.1850022,9.26382504 22.6123319,11.1159925 23.0461652,11.986437 C23.6421287,13.1821797 24.3494523,14.7622664 24.3494523,17.7503577 C24.3494523,22.1047541 21.9867034,25.9869879 18.9643667,28.0125097 C14.7041375,30.8676473 7.79862276,35.3813665 -2.26809365e-14,40.518728 C7.46019647,33.7630317 12.9525577,21.8240861 11.8436413,10.201457 Z" id="path-7"></path>
        <linearGradient x1="26.9166341%" y1="66.9691246%" x2="100%" y2="50%" id="linearGradient-9">
            <stop stop-color="#367AF5" offset="0%"></stop>
            <stop stop-color="#367AF5" stop-opacity="0" offset="100%"></stop>
        </linearGradient>
        <path d="M5.48795124,12.6275507 C5.23059658,11.7057054 4.98425585,10.864865 4.98425585,10.002806 C4.98425585,7.18665491 7.1301454,3.67175478 11.1917497,3.67175478 C12.2085008,3.67175478 13.0658438,3.88774906 13.8491681,4.28660488 C14.5147487,4.62550755 16.2516986,5.03536961 17.6518085,4.67869425 C17.8516679,4.62778043 18.1193189,4.58367998 18.4547612,4.54639292 C16.8792487,4.16384537 15.873789,3.7878853 15.4383821,3.41851273 C14.7852718,2.86445386 12.4543019,-2.89480374e-14 8.24299874,-2.89480374e-14 C4.0316956,-2.89480374e-14 0.889877454,2.46876926 1.13404683e-14,5.03536961 C0.0971890072,5.09848917 0.180804437,5.16940304 0.250846289,5.24811122 C2.62715257,7.22366947 4.37285422,9.68348263 5.48795124,12.6275507 Z" id="path-10"></path>
        <linearGradient x1="70.5207244%" y1="14.3304414%" x2="45.3597788%" y2="22.1359664%" id="linearGradient-12">
            <stop stop-color="#000000" stop-opacity="0" offset="0%"></stop>
            <stop stop-color="#000000" offset="100%"></stop>
        </linearGradient>
        <linearGradient x1="50.7030614%" y1="19.2374911%" x2="-2.62433852%" y2="57.9123449%" id="linearGradient-13">
            <stop stop-color="#FFFFFF" stop-opacity="0" offset="0%"></stop>
            <stop stop-color="#FFFFFF" offset="100%"></stop>
        </linearGradient>
        <filter x="-32.6%" y="-41.0%" width="150.1%" height="166.3%" filterUnits="objectBoundingBox" id="filter-14">
            <feGaussianBlur stdDeviation="0.762185802" in="SourceGraphic"></feGaussianBlur>
        </filter>
        <linearGradient x1="50%" y1="-2.48949813e-15%" x2="50%" y2="100%" id="linearGradient-15">
            <stop stop-color="#764EF6" offset="0%"></stop>
            <stop stop-color="#4534EB" offset="100%"></stop>
        </linearGradient>
        <path d="M1.18278884,37.0999603 L2.52691996,37.0999603 L20.460564,25.9478177 C24.6422208,23.2162132 26.7330491,19.5174472 26.7330491,14.8515196 C26.7330491,7.85262831 24.9709404,9.32851455 24.9709404,6.19756504 C24.9709404,3.06661553 27.8815294,3.65479687 29.1299316,3.06027672 C29.9621997,2.66392996 30.8336653,1.99218019 31.7443282,1.04502743 L31.2469085,1.00693948 C30.895383,1.09871093 30.502781,1.14459666 30.0691026,1.14459666 C29.2080432,1.14459666 28.3641188,0.97903701 27.8348689,0.773849535 C26.9725337,0.439526598 26.4062682,1.1579215e-13 24.7868497,1.1579215e-13 C20.906281,1.1579215e-13 18.5793559,3.36533842 18.5793559,6.33105125 C18.5793559,8.60326793 20.0328572,10.3311869 20.0328572,14.1921427 C20.0328572,18.0530986 18.7184161,20.7094922 18.1697937,21.9054373 C17.6211713,23.1013825 15.6200994,26.2522041 12.9856946,27.9980133 C11.8249674,28.7672225 9.27653558,30.4582953 5.34039917,33.0712317 L2.15468897e-13,36.3950177 L1.18278884,37.0999603 Z" id="path-16"></path>
        <linearGradient x1="90.1888562%" y1="6.11835344%" x2="20.6766909%" y2="87.5670333%" id="linearGradient-18">
            <stop stop-color="#000000" stop-opacity="0" offset="0%"></stop>
            <stop stop-color="#000000" offset="4.93229284%"></stop>
            <stop stop-color="#000000" stop-opacity="0" offset="100%"></stop>
        </linearGradient>
        <filter x="-21.6%" y="-14.3%" width="135.4%" height="128.7%" filterUnits="objectBoundingBox" id="filter-19">
            <feGaussianBlur stdDeviation="1.5243716" in="SourceGraphic"></feGaussianBlur>
        </filter>
        <filter x="-16.2%" y="-8.7%" width="124.6%" height="117.5%" filterUnits="objectBoundingBox" id="filter-20">
            <feGaussianBlur stdDeviation="0.762185802" in="SourceGraphic"></feGaussianBlur>
        </filter>
        <linearGradient x1="85.5961628%" y1="4.5102643%" x2="21.2575247%" y2="92.0860021%" id="linearGradient-21">
            <stop stop-color="#FFFFFF" stop-opacity="0" offset="0%"></stop>
            <stop stop-color="#FFFFFF" offset="20.7985904%"></stop>
            <stop stop-color="#FFFFFF" stop-opacity="0" offset="100%"></stop>
        </linearGradient>
        <filter x="-11.9%" y="-11.5%" width="124.5%" height="123.4%" filterUnits="objectBoundingBox" id="filter-22">
            <feGaussianBlur stdDeviation="1.27030967" in="SourceGraphic"></feGaussianBlur>
        </filter>
        <linearGradient x1="50%" y1="10.1832432%" x2="50%" y2="100%" id="linearGradient-23">
            <stop stop-color="#000000" offset="0%"></stop>
            <stop stop-color="#000000" stop-opacity="0" offset="100%"></stop>
        </linearGradient>
        <linearGradient x1="50%" y1="-2.48949813e-15%" x2="50%" y2="100%" id="linearGradient-24">
            <stop stop-color="#66D2F9" offset="0%"></stop>
            <stop stop-color="#367AF5" offset="100%"></stop>
        </linearGradient>
        <path d="M1.72942141e-13,22.7408573 L0.92038064,24.0678219 L7.13058722,17.0256255 L7.48046392,10.1969698 L5.75978515,4.441563 L7.48046392,0.856490295 L6.91946999,0.239289093 C6.48874957,0.0797630311 6.06266799,-4.63168598e-14 5.64122524,-4.63168598e-14 C5.00906112,-4.63168598e-14 4.41273058,0.175712271 4.02551988,0.372667068 C2.16066201,1.32122738 1.91407979,3.40359962 1.91407979,3.81017571 C1.91407979,4.56343264 2.30187457,5.52924528 2.57300549,6.52884208 C2.84413641,7.52843889 3.40637873,9.19017746 3.40637873,11.7865463 C3.40637873,15.4911326 2.27091916,19.1425696 1.72942141e-13,22.7408573 Z" id="path-25"></path>
        <linearGradient x1="50%" y1="0%" x2="50%" y2="87.0647883%" id="linearGradient-27">
            <stop stop-color="#000000" offset="0%"></stop>
            <stop stop-color="#000000" stop-opacity="0" offset="100%"></stop>
        </linearGradient>
        <linearGradient x1="53.1143457%" y1="0.985554771%" x2="44.6790667%" y2="86.9634431%" id="linearGradient-28">
            <stop stop-color="#000000" offset="0%"></stop>
            <stop stop-color="#000000" stop-opacity="0" offset="100%"></stop>
        </linearGradient>
        <filter x="-31.5%" y="-9.8%" width="159.8%" height="118.5%" filterUnits="objectBoundingBox" id="filter-29">
            <feGaussianBlur stdDeviation="0.635154835" in="SourceGraphic"></feGaussianBlur>
        </filter>
        <linearGradient x1="40.9036173%" y1="0%" x2="58.1932951%" y2="98.156608%" id="linearGradient-30">
            <stop stop-color="#FCF975" offset="0%"></stop>
            <stop stop-color="#EE9675" offset="100%"></stop>
        </linearGradient>
        <path d="M0.277833111,13.0761883 C-0.778300569,6.27886515 1.61709761,0.718866192 2.01009093,0.0212255458 C8.28228328,2.70214216 19.2328223,14.6200389 12.5408908,30.1214742 C12.247158,29.9476711 2.21776422,25.5616708 0.277833111,13.0761883 Z" id="path-31"></path>
        <linearGradient x1="50%" y1="0%" x2="50%" y2="100%" id="linearGradient-33">
            <stop stop-color="#000000" stop-opacity="0" offset="0%"></stop>
            <stop stop-color="#000000" offset="100%"></stop>
        </linearGradient>
        <filter x="-36.7%" y="-17.8%" width="173.3%" height="135.7%" filterUnits="objectBoundingBox" id="filter-34">
            <feGaussianBlur stdDeviation="1.48683439" in="SourceGraphic"></feGaussianBlur>
        </filter>
        <filter x="-14.7%" y="-7.1%" width="129.3%" height="114.3%" filterUnits="objectBoundingBox" id="filter-35">
            <feGaussianBlur stdDeviation="0.594733758" in="SourceGraphic"></feGaussianBlur>
        </filter>
        <linearGradient x1="48.8846256%" y1="12.0370633%" x2="58.2206537%" y2="75.4453498%" id="linearGradient-36">
            <stop stop-color="#EE9574" stop-opacity="0" offset="0%"></stop>
            <stop stop-color="#EE9675" offset="77.1260936%"></stop>
            <stop stop-color="#EE9675" stop-opacity="0" offset="100%"></stop>
        </linearGradient>
        <filter x="-36.0%" y="-18.7%" width="172.2%" height="136.5%" filterUnits="objectBoundingBox" id="filter-37">
            <feGaussianBlur stdDeviation="1.77843354" in="SourceGraphic"></feGaussianBlur>
        </filter>
        <linearGradient x1="48.034601%" y1="12.9733017%" x2="59.8020243%" y2="82.8211418%" id="linearGradient-38">
            <stop stop-color="#EE9574" stop-opacity="0" offset="0%"></stop>
            <stop stop-color="#EE9675" offset="79.7879344%"></stop>
            <stop stop-color="#EE9675" stop-opacity="0" offset="100%"></stop>
        </linearGradient>
        <filter x="-18.4%" y="-11.4%" width="136.9%" height="120.9%" filterUnits="objectBoundingBox" id="filter-39">
            <feGaussianBlur stdDeviation="0.762185802" in="SourceGraphic"></feGaussianBlur>
        </filter>
        <linearGradient x1="48.8231434%" y1="12.3590632%" x2="58.1098523%" y2="75.6479394%" id="linearGradient-40">
            <stop stop-color="#EE9574" stop-opacity="0" offset="0%"></stop>
            <stop stop-color="#EE9575" offset="81.3262444%"></stop>
            <stop stop-color="#EE9575" stop-opacity="0" offset="100%"></stop>
        </linearGradient>
        <linearGradient x1="48.9910697%" y1="13.2788446%" x2="58.139999%" y2="75.8440332%" id="linearGradient-41">
            <stop stop-color="#EE9574" stop-opacity="0" offset="0%"></stop>
            <stop stop-color="#EE9675" offset="72.1917808%"></stop>
            <stop stop-color="#EE9675" stop-opacity="0" offset="100%"></stop>
        </linearGradient>
        <linearGradient x1="52.0243628%" y1="18.4259564%" x2="59.1149146%" y2="68.9144402%" id="linearGradient-42">
            <stop stop-color="#FFFFFF" offset="0%"></stop>
            <stop stop-color="#FFFFFF" stop-opacity="0" offset="100%"></stop>
        </linearGradient>
        <path d="M10.7852362,7.6311795 C19.2418697,13.2412345 19.3930559,23.157433 15.9906138,29.2150224 C15.7724293,29.5671838 13.9769157,32.3242762 10.604073,37.4862995 C5.48573757,34.9000752 2.22134976,31.5235793 0.810909593,27.356812 C-0.105358894,24.6499425 -0.236231236,15.5353086 0.418292567,0.0129103184 C7.27609051,4.98193507 10.7317384,7.52135814 10.7852362,7.6311795 Z" id="path-43"></path>
        <linearGradient x1="51.8482966%" y1="19.5529976%" x2="61.0087758%" y2="62.6761916%" id="linearGradient-45">
            <stop stop-color="#FFFFFF" offset="0%"></stop>
            <stop stop-color="#FFFFFF" stop-opacity="0" offset="100%"></stop>
        </linearGradient>
        <path d="M10.7852362,7.6311795 C19.2418697,13.2412345 19.3930559,23.157433 15.9906138,29.2150224 C15.863643,29.57007 14.9684756,32.6656414 13.3051115,38.5017366 C6.38608373,35.2385542 2.22134976,31.5235793 0.810909593,27.356812 C-0.105358894,24.6499425 -0.236231236,15.5353086 0.418292567,0.0129103184 C7.27609051,4.98193507 10.7317384,7.52135814 10.7852362,7.6311795 Z" id="path-46"></path>
        <filter x="-18.9%" y="-10.6%" width="138.1%" height="120.3%" filterUnits="objectBoundingBox" id="filter-47">
            <feGaussianBlur stdDeviation="0.892100637" in="SourceGraphic"></feGaussianBlur>
        </filter>
        <linearGradient x1="51.8482966%" y1="19.5529976%" x2="61.0087758%" y2="47.7801146%" id="linearGradient-49">
            <stop stop-color="#FFFFFF" offset="0%"></stop>
            <stop stop-color="#FFFFFF" stop-opacity="0" offset="100%"></stop>
        </linearGradient>
        <path d="M10.7852362,7.6311795 C19.2418697,13.2412345 19.3930559,23.157433 15.9906138,29.2150224 C15.863643,29.57007 14.9684756,32.6656414 13.3051115,38.5017366 C6.38608373,35.2385542 2.22134976,31.5235793 0.810909593,27.356812 C-0.105358894,24.6499425 -0.236231236,15.5353086 0.418292567,0.0129103184 C7.27609051,4.98193507 10.7317384,7.52135814 10.7852362,7.6311795 Z" id="path-50"></path>
        <linearGradient x1="42.6636331%" y1="1.68095561%" x2="52.6766393%" y2="23.2804608%" id="linearGradient-52">
            <stop stop-color="#FFFFFF" stop-opacity="0" offset="0%"></stop>
            <stop stop-color="#FFFFFF" offset="100%"></stop>
        </linearGradient>
        <linearGradient x1="41.4234931%" y1="0%" x2="57.9196973%" y2="97.8319552%" id="linearGradient-53">
            <stop stop-color="#9B7EF7" offset="0%"></stop>
            <stop stop-color="#4534EB" offset="100%"></stop>
        </linearGradient>
        <path d="M0.230502055,11.1355101 C-0.682427058,5.33758774 1.38817137,0.595067533 1.72787746,-5.78960748e-14 C7.14960305,2.28674526 16.6153232,12.4523706 10.8307722,25.6746519 C10.5768677,25.5264028 1.90739165,21.7852699 0.230502055,11.1355101 Z" id="path-54"></path>
        <linearGradient x1="50%" y1="0%" x2="50%" y2="100%" id="linearGradient-56">
            <stop stop-color="#000000" stop-opacity="0" offset="0%"></stop>
            <stop stop-color="#000000" offset="100%"></stop>
        </linearGradient>
        <filter x="-36.3%" y="-17.9%" width="172.5%" height="135.8%" filterUnits="objectBoundingBox" id="filter-57">
            <feGaussianBlur stdDeviation="1.27030967" in="SourceGraphic"></feGaussianBlur>
        </filter>
        <filter x="-14.5%" y="-7.2%" width="129.0%" height="114.3%" filterUnits="objectBoundingBox" id="filter-58">
            <feGaussianBlur stdDeviation="0.508123868" in="SourceGraphic"></feGaussianBlur>
        </filter>
        <linearGradient x1="41.3533393%" y1="0%" x2="54.8659804%" y2="94.7839911%" id="linearGradient-59">
            <stop stop-color="#FFFFFF" offset="0%"></stop>
            <stop stop-color="#FFFFFF" stop-opacity="0" offset="100%"></stop>
        </linearGradient>
        <path d="M0.244500569,0.0904898454 C4.76431036,2.67508915 7.01384004,3.99644267 6.99308962,4.05455038 C11.6185191,7.091318 14.0498184,10.6936446 14.833491,15.7649604 C15.2339037,18.356118 15.1707991,22.9591683 12.7139627,27.1486515 C12.2574755,27.7067799 11.167198,29.1121622 9.44313016,31.3647982 C5.99570015,29.1261447 3.14427325,24.7193688 0.888849472,18.1444703 C0.121470206,15.9074447 -0.0933127624,9.88945121 0.244500569,0.0904898454 Z" id="path-60"></path>
        <linearGradient x1="49.3402527%" y1="11.1522494%" x2="63.1440601%" y2="59.1021565%" id="linearGradient-62">
            <stop stop-color="#4534EB" stop-opacity="0" offset="0%"></stop>
            <stop stop-color="#4534EB" offset="63.1811146%"></stop>
            <stop stop-color="#4534EB" stop-opacity="0" offset="100%"></stop>
        </linearGradient>
        <path d="M0.244500569,0.0904898454 C4.76431036,2.67508915 7.01384004,3.99644267 6.99308962,4.05455038 C11.6185191,7.091318 14.0498184,10.6936446 14.833491,15.7649604 C15.2339037,18.356118 15.1707991,22.9591683 12.7139627,27.1486515 C12.2574755,27.7067799 11.167198,29.1121622 9.44313016,31.3647982 C5.99570015,29.1261447 3.14427325,24.7193688 0.888849472,18.1444703 C0.121470206,15.9074447 -0.0933127624,9.88945121 0.244500569,0.0904898454 Z" id="path-63"></path>
        <filter x="-35.7%" y="-18.7%" width="171.6%" height="136.6%" filterUnits="objectBoundingBox" id="filter-64">
            <feGaussianBlur stdDeviation="1.52437166" in="SourceGraphic"></feGaussianBlur>
        </filter>
        <linearGradient x1="49.2235463%" y1="10.4393756%" x2="63.401326%" y2="57.7350972%" id="linearGradient-66">
            <stop stop-color="#4534EB" stop-opacity="0" offset="0%"></stop>
            <stop stop-color="#4534EB" offset="63.3512428%"></stop>
            <stop stop-color="#4534EB" stop-opacity="0" offset="100%"></stop>
        </linearGradient>
        <path d="M0.244500569,0.0904898454 C4.76431036,2.67508915 7.01384004,3.99644267 6.99308962,4.05455038 C11.6185191,7.091318 14.0498184,10.6936446 14.833491,15.7649604 C15.2339037,18.356118 15.1707991,22.9591683 12.7139627,27.1486515 C12.2574755,27.7067799 11.167198,29.1121622 9.44313016,31.3647982 C5.99570015,29.1261447 3.14427325,24.7193688 0.888849472,18.1444703 C0.121470206,15.9074447 -0.0933127624,9.88945121 0.244500569,0.0904898454 Z" id="path-67"></path>
        <filter x="-17.9%" y="-10.2%" width="135.8%" height="119.6%" filterUnits="objectBoundingBox" id="filter-68">
            <feGaussianBlur stdDeviation="0.635154835" in="SourceGraphic"></feGaussianBlur>
        </filter>
        <linearGradient x1="49.1552933%" y1="10.7048816%" x2="63.4057989%" y2="57.5684873%" id="linearGradient-70">
            <stop stop-color="#4534EB" stop-opacity="0" offset="0%"></stop>
            <stop stop-color="#4534EB" offset="63.3482742%"></stop>
            <stop stop-color="#4534EB" stop-opacity="0" offset="100%"></stop>
        </linearGradient>
        <path d="M0.244500569,0.0904898454 C4.76431036,2.67508915 7.01384004,3.99644267 6.99308962,4.05455038 C11.6185191,7.091318 14.0498184,10.6936446 14.833491,15.7649604 C15.2339037,18.356118 15.1707991,22.9591683 12.7139627,27.1486515 C12.2574755,27.7067799 11.167198,29.1121622 9.44313016,31.3647982 C5.99570015,29.1261447 3.14427325,24.7193688 0.888849472,18.1444703 C0.121470206,15.9074447 -0.0933127624,9.88945121 0.244500569,0.0904898454 Z" id="path-71"></path>
        <linearGradient x1="48.8782582%" y1="10.0924224%" x2="63.4988156%" y2="57.5327726%" id="linearGradient-73">
            <stop stop-color="#4534EB" stop-opacity="0" offset="0%"></stop>
            <stop stop-color="#4534EB" offset="62.9667849%"></stop>
            <stop stop-color="#4534EB" stop-opacity="0" offset="100%"></stop>
        </linearGradient>
        <path d="M0.244500569,0.0904898454 C4.76431036,2.67508915 7.01384004,3.99644267 6.99308962,4.05455038 C11.6185191,7.091318 14.0498184,10.6936446 14.833491,15.7649604 C15.2339037,18.356118 15.1707991,22.9591683 12.7139627,27.1486515 C12.2574755,27.7067799 11.167198,29.1121622 9.44313016,31.3647982 C5.99570015,29.1261447 3.14427325,24.7193688 0.888849472,18.1444703 C0.121470206,15.9074447 -0.0933127624,9.88945121 0.244500569,0.0904898454 Z" id="path-74"></path>
        <linearGradient x1="52.0790058%" y1="18.4259564%" x2="58.9812991%" y2="71.1285215%" id="linearGradient-76">
            <stop stop-color="#FFFFFF" offset="0%"></stop>
            <stop stop-color="#FFFFFF" stop-opacity="0" offset="100%"></stop>
        </linearGradient>
        <path d="M1.13463671,2.75601472 C8.44460803,7.54123127 8.57529439,15.9994652 5.63420039,21.1664158 C5.44560023,21.4667995 3.8935461,23.8185205 0.978038003,28.2215789 C-3.44628585,26.0156034 -6.2680448,23.1355489 -7.48723884,19.5814155 C-8.27926754,17.2725331 -8.39239448,9.49801091 -7.82661966,-3.74215116 C-1.89869263,0.496284942 1.08839283,2.66234024 1.13463671,2.75601472 Z" id="path-77"></path>
        <linearGradient x1="51.8981872%" y1="19.5529976%" x2="61.3059327%" y2="62.6761916%" id="linearGradient-79">
            <stop stop-color="#FFFFFF" offset="0%"></stop>
            <stop stop-color="#FFFFFF" stop-opacity="0" offset="100%"></stop>
        </linearGradient>
        <path d="M1.13463671,2.75601472 C8.44460803,7.54123127 8.57529439,15.9994652 5.63420039,21.1664158 C5.52444598,21.4692613 4.75065718,24.1096953 3.31283399,29.0877177 C-2.66802052,26.3043163 -6.2680448,23.1355489 -7.48723884,19.5814155 C-8.27926754,17.2725331 -8.39239448,9.49801091 -7.82661966,-3.74215116 C-1.89869263,0.496284942 1.08839283,2.66234024 1.13463671,2.75601472 Z" id="path-80"></path>
        <filter x="-18.7%" y="-10.6%" width="137.7%" height="120.3%" filterUnits="objectBoundingBox" id="filter-81">
            <feGaussianBlur stdDeviation="0.762185802" in="SourceGraphic"></feGaussianBlur>
        </filter>
        <linearGradient x1="51.8981872%" y1="19.5529976%" x2="61.3059327%" y2="47.7801146%" id="linearGradient-83">
            <stop stop-color="#FFFFFF" offset="0%"></stop>
            <stop stop-color="#FFFFFF" stop-opacity="0" offset="100%"></stop>
        </linearGradient>
        <path d="M1.13463671,2.75601472 C8.44460803,7.54123127 8.57529439,15.9994652 5.63420039,21.1664158 C5.52444598,21.4692613 4.75065718,24.1096953 3.31283399,29.0877177 C-2.66802052,26.3043163 -6.2680448,23.1355489 -7.48723884,19.5814155 C-8.27926754,17.2725331 -8.39239448,9.49801091 -7.82661966,-3.74215116 C-1.89869263,0.496284942 1.08839283,2.66234024 1.13463671,2.75601472 Z" id="path-84"></path>
        <linearGradient x1="50%" y1="0%" x2="55.7492931%" y2="92.8663334%" id="linearGradient-86">
            <stop stop-color="#FFFFFF" stop-opacity="0" offset="0%"></stop>
            <stop stop-color="#FFFFFF" offset="100%"></stop>
        </linearGradient>
        <linearGradient x1="42.4150028%" y1="0%" x2="57.4110837%" y2="95.197199%" id="linearGradient-87">
            <stop stop-color="#66D2F9" offset="0%"></stop>
            <stop stop-color="#7127F2" offset="100%"></stop>
        </linearGradient>
        <path d="M5.19373579,9.27044931 C4.43296153,4.44360753 6.15846022,0.495401049 6.44154862,0 C9.9921983,1.49609782 15.624137,7.04315822 15.5336457,14.6927159 C15.5089893,16.7770113 15.0499706,19.1503906 14.0272943,21.3744639 C12.3884372,24.9385811 10.0328298,27.2155292 8.74475712,28.0762827 C6.12640881,29.8259919 3.49765312,31.5415712 -3.62894984e-13,33.848687 C5.41097755,26.8436573 7.58369945,19.0835869 8.08383453,16.3572807 C6.78775613,14.5731191 5.66266069,12.2456108 5.19373579,9.27044931 Z" id="path-88"></path>
        <linearGradient x1="54.7071465%" y1="-0.567750785%" x2="78.1457564%" y2="26.1192315%" id="linearGradient-90">
            <stop stop-color="#000000" offset="0%"></stop>
            <stop stop-color="#000000" stop-opacity="0" offset="100%"></stop>
        </linearGradient>
        <path d="M14.0272943,5.0171832 C12.8792872,8.132065 10.0328298,10.8582485 8.74475712,11.719002 C6.12640881,13.4687112 3.49765312,15.1842905 0,17.4914063 C5.41097755,10.4863766 7.58369945,2.72630618 8.08383453,2.31584299e-14 C9.82107503,2.44594153 12.4944497,4.32418506 14.0272943,5.0171832 Z" id="path-91"></path>
        <filter x="-36.2%" y="-17.9%" width="172.5%" height="135.7%" filterUnits="objectBoundingBox" id="filter-93">
            <feGaussianBlur stdDeviation="1.27030967" in="SourceGraphic"></feGaussianBlur>
        </filter>
        <linearGradient x1="50%" y1="0%" x2="50%" y2="100%" id="linearGradient-94">
            <stop stop-color="#FFFFFF" stop-opacity="0" offset="0%"></stop>
            <stop stop-color="#FFFFFF" offset="48.1150988%"></stop>
            <stop stop-color="#FFFFFF" stop-opacity="0" offset="100%"></stop>
        </linearGradient>
        <filter x="-23.7%" y="-13.7%" width="154.8%" height="126.7%" filterUnits="objectBoundingBox" id="filter-95">
            <feGaussianBlur stdDeviation="0.762185802" in="SourceGraphic"></feGaussianBlur>
        </filter>
        <path d="M6.21925258,4.69187479 C11.4549714,8.71257091 12.632667,12.6176248 12.632667,17.5700048 C12.632667,22.5223848 10.7627515,26.3505918 8.50252679,28.8362275 C6.97145812,30.5199887 5.38949375,31.7524216 3.75663367,32.533526 L-5.67023413e-15,35.0659465 L-5.67023413e-15,-2.31584299e-14 C4.11818342,3.10642588 6.19126762,4.67038414 6.21925258,4.69187479 Z" id="path-96"></path>
        <linearGradient x1="29.7832185%" y1="13.5852885%" x2="29.7832185%" y2="93.1839356%" id="linearGradient-98">
            <stop stop-color="#000000" stop-opacity="0" offset="0%"></stop>
            <stop stop-color="#000000" offset="46.0088113%"></stop>
            <stop stop-color="#000000" stop-opacity="0" offset="100%"></stop>
        </linearGradient>
        <filter x="-35.2%" y="-14.5%" width="170.4%" height="128.8%" filterUnits="objectBoundingBox" id="filter-99">
            <feGaussianBlur stdDeviation="1.27030967" in="SourceGraphic"></feGaussianBlur>
        </filter>
        <linearGradient x1="47.2441403%" y1="11.6775985%" x2="47.0165669%" y2="92.5549372%" id="linearGradient-100">
            <stop stop-color="#000000" stop-opacity="0" offset="0%"></stop>
            <stop stop-color="#000000" offset="47.2327161%"></stop>
            <stop stop-color="#000000" stop-opacity="0" offset="100%"></stop>
        </linearGradient>
        <filter x="-17.1%" y="-8.0%" width="134.2%" height="115.7%" filterUnits="objectBoundingBox" id="filter-101">
            <feGaussianBlur stdDeviation="0.508123868" in="SourceGraphic"></feGaussianBlur>
        </filter>
        <linearGradient x1="29.7832185%" y1="13.7930995%" x2="29.7832185%" y2="91.8994199%" id="linearGradient-102">
            <stop stop-color="#000000" stop-opacity="0" offset="0%"></stop>
            <stop stop-color="#000000" offset="46.5840297%"></stop>
            <stop stop-color="#000000" stop-opacity="0" offset="100%"></stop>
        </linearGradient>
        <linearGradient x1="34.7827809%" y1="13.4628818%" x2="34.7827809%" y2="91.7919235%" id="linearGradient-103">
            <stop stop-color="#000000" stop-opacity="0" offset="0%"></stop>
            <stop stop-color="#000000" offset="46.7081068%"></stop>
            <stop stop-color="#000000" stop-opacity="0" offset="100%"></stop>
        </linearGradient>
        <path d="M2.52431794,23.8955461 C5.95008379,20.9975269 7.66296672,17.2205872 7.66296672,12.5647268 C7.66296672,8.3432193 6.56096385,6.04090311 5.24378093,4.43344384 C4.38190114,3.38162587 3.49549345,2.5140959 2.63020003,1.8275036 C2.35501271,1.60098302 1.61692299,0.99619595 0.415930863,0.013142391 C-0.291596858,2.42100477 -0.0212096798,5.77536436 1.2270924,10.0762211 C2.47539448,14.3770779 2.2050073,19.496223 0.415930863,25.4336563 L2.52431794,23.8955461 Z" id="path-104"></path>
        <linearGradient x1="50.7853908%" y1="18.4259564%" x2="53.5363079%" y2="79.0513155%" id="linearGradient-106">
            <stop stop-color="#FFFFFF" offset="0%"></stop>
            <stop stop-color="#FFFFFF" stop-opacity="0" offset="100%"></stop>
        </linearGradient>
        <linearGradient x1="50.7564714%" y1="19.5529976%" x2="53.7634476%" y2="76.9007195%" id="linearGradient-107">
            <stop stop-color="#FFFFFF" offset="0%"></stop>
            <stop stop-color="#FFFFFF" stop-opacity="0" offset="100%"></stop>
        </linearGradient>
        <filter x="-40.1%" y="-13.3%" width="178.3%" height="128.7%" filterUnits="objectBoundingBox" id="filter-108">
            <feGaussianBlur stdDeviation="0.762185802" in="SourceGraphic"></feGaussianBlur>
        </filter>
        <linearGradient x1="48.5559024%" y1="7.59846119%" x2="53.616743%" y2="67.9348172%" id="linearGradient-109">
            <stop stop-color="#FFFFFF" offset="0%"></stop>
            <stop stop-color="#FFFFFF" stop-opacity="0" offset="100%"></stop>
        </linearGradient>
    </defs>
    <g id="Symbols" stroke="none" stroke-width="1" fill="none" fill-rule="evenodd">
        <g id="Selector" transform="translate(-27.000000, -21.000000)">
            <g transform="translate(0.000000, 24.000000)" id="Logo">
                <g transform="translate(26.443299, 0.161449)">
                    <g id="Shadow" transform="translate(0.621636, 4.255182)">
                        <path d="M23.4279842,10.201457 C22.8358054,3.99479032 27.2888365,0 32.0826063,0 C34.8191995,0 36.9004857,1.19534325 38.4159945,2.81006189 C39.3402213,3.79479137 40.4507805,4.2393357 41.6484626,4.42570715 C40.4277177,5.34955347 39.4492953,5.58671651 38.4143693,5.63310484 C37.1563723,5.68949184 35.8535929,6.29002284 35.0237534,7.47403685 C33.7693451,9.26382504 34.1966748,11.1159925 34.6305082,11.986437 C35.2264716,13.1821797 35.9337952,14.7622664 35.9337952,17.7503577 C35.9337952,22.1047541 33.5710464,25.9869879 30.5487097,28.0125097 C26.2884805,30.8676473 19.3829657,35.3813665 11.5843429,40.518728 C19.0445394,33.7630317 24.5369006,21.8240861 23.4279842,10.201457 Z" id="Path-14-Copy-12" fill="url(#linearGradient-1)" opacity="0.600000024" filter="url(#filter-2)"></path>
                        <path d="M23.4279842,10.201457 C22.8358054,3.99479032 27.2888365,0 32.0826063,0 C34.8191995,0 36.9004857,1.19534325 38.4159945,2.81006189 C39.3402213,3.79479137 40.4507805,4.2393357 41.6484626,4.42570715 C40.4277177,5.34955347 39.4492953,5.58671651 38.4143693,5.63310484 C37.1563723,5.68949184 35.8535929,6.29002284 35.0237534,7.47403685 C33.7693451,9.26382504 34.1966748,11.1159925 34.6305082,11.986437 C35.2264716,13.1821797 35.9337952,14.7622664 35.9337952,17.7503577 C35.9337952,22.1047541 33.5710464,25.9869879 30.5487097,28.0125097 C26.2884805,30.8676473 19.3829657,35.3813665 11.5843429,40.518728 C19.0445394,33.7630317 24.5369006,21.8240861 23.4279842,10.201457 Z" id="Path-14-Copy-11" fill="url(#linearGradient-1)" opacity="0.400000006" filter="url(#filter-3)"></path>
                        <path d="M8.20598318,15.4206697 C7.20967368,8.69220185 9.68235685,3.15473738 10.0858515,2.45896608 C16.3853837,5.05202368 27.310177,16.7548731 20.4026554,32.1936216 C20.1081322,32.024344 10.0360278,27.7796771 8.20598318,15.4206697 Z" id="Path-18-Copy-10" fill="url(#linearGradient-4)" opacity="0.400000006" filter="url(#filter-5)" transform="translate(15.292019, 17.326294) rotate(-40.000000) translate(-15.292019, -17.326294) "></path>
                    </g>
                    <g id="Main" transform="translate(12.205979, 0.995923)">
                        <mask id="mask-8" fill="white">
                            <use xlink:href="#path-7"></use>
                        </mask>
                        <use id="Path-14-Copy-11" fill="url(#linearGradient-6)" xlink:href="#path-7"></use>
                        <g id="4-copy-6" mask="url(#mask-8)">
                            <g transform="translate(12.412311, -0.252987)">
                                <mask id="mask-11" fill="white">
                                    <use xlink:href="#path-10"></use>
                                </mask>
                                <use id="4-copy-5" stroke="none" fill="url(#linearGradient-9)" fill-rule="evenodd" xlink:href="#path-10"></use>
                                <path d="M17.6518085,4.67869425 C16.5834115,4.99236711 15.4035332,4.89888165 14.1121736,4.39823786 C13.5556322,4.18247378 13.0159209,3.98128516 12.4930398,3.794672 C11.2099784,2.69975898 9.74094916,2.15230248 8.08595222,2.15230248 C5.6034568,2.15230248 3.79166229,3.5061179 3.00473512,4.45248348 C2.21780796,5.39884906 1.25319775,7.32551525 1.25319775,9.11645885 C1.25319775,10.9074025 1.82370158,11.8868303 1.89840781,12.0477899 C1.97311404,12.2087495 3.24090814,14.8473072 3.24090814,18.3597937 C3.24090814,21.8722802 1.89840781,25.7739083 -0.361816942,28.259544 C-2.13980088,30.2148453 -3.93446144,31.5632868 -5.74579862,32.3048686 L-0.73451264,2.81262985 C1.78396358,0.584078294 4.72411853,-0.530197484 8.08595222,-0.530197484 C11.4477859,-0.530197484 14.6364047,1.20609976 17.6518085,4.67869425 Z" id="Path-5" stroke="none" fill="#000000" fill-rule="evenodd" opacity="0.100000001" mask="url(#mask-11)"></path>
                                <path d="M16.5354828,4.22138273 C13.812124,0.611232732 10.9954187,-1.1612529 8.08595222,-1.1612529 C4.95744271,-1.1612529 2.21779075,0.253203707 -0.167666629,3.12364289 L-10.0583704,33.612255 L-5.9864504,31.717069 C-4.27015511,31.0143984 -2.55023708,29.7221157 -0.831741138,27.8322351 C1.27233777,25.5183176 2.60575331,21.7969559 2.60575331,18.3597937 C2.60575331,16.8427481 2.36348006,15.3808406 1.95935936,14.0280399 C1.82552702,13.5800339 1.68263371,13.1745715 1.53850262,12.8152115 C1.44941823,12.5930987 1.4082906,12.5004974 1.32228251,12.3151872 C1.33198144,12.3360842 1.24715889,12.1664293 1.20174296,12.0671715 C1.12209867,11.8931065 1.04709943,11.7046062 0.976940931,11.4930111 C0.751173779,10.8121068 0.618042915,10.0233858 0.618042915,9.11645885 C0.618042915,7.37313466 1.47092883,5.30363541 2.51636174,4.04638853 C3.71000982,2.61089679 5.77329196,1.51714764 8.08595222,1.51714764 C9.85389501,1.51714764 11.4381119,2.09331343 12.8145697,3.23515051 C13.3091262,3.41275178 13.8181851,3.60304528 14.3417649,3.80603054 C15.1303141,4.11174107 15.8598579,4.24850243 16.5354828,4.22138273 Z" id="Path-5-Copy" stroke="url(#linearGradient-12)" stroke-width="1.27030967" fill="none" opacity="0.100000001" mask="url(#mask-11)"></path>
                                <path d="M17.2362499,4.52428722 C14.3265512,0.467320492 11.2763636,-1.54640773 8.08595222,-1.54640773 C4.80292493,-1.54640773 1.93191434,-0.0461925044 -0.49671267,2.88977371 L-10.697604,34.3345551 L-5.84052032,32.0735079 C-4.06659208,31.3472417 -2.30135055,30.0209045 -0.546781367,28.0913532 C1.62420973,25.7038504 2.99090814,21.8896012 2.99090814,18.3597937 C2.99090814,16.802651 2.74260418,15.3043535 2.32839963,13.9177969 C2.19110156,13.4581893 2.04433267,13.0417298 1.89597697,12.6718367 C1.80374696,12.4418809 1.76030598,12.344071 1.67164212,12.1530388 C1.67803684,12.1668166 1.59383949,11.9984123 1.55197686,11.9069202 C1.4779557,11.7451448 1.4081045,11.5695834 1.34252387,11.3717949 C1.12944216,10.7291494 1.00319775,9.98122651 1.00319775,9.11645885 C1.00319775,7.46976055 1.82128645,5.48469558 2.81250901,4.29264255 C3.93687763,2.9404669 5.89530303,1.90230248 8.08595222,1.90230248 C9.80075242,1.90230248 11.3272423,2.47117261 12.5770719,3.55921797 C13.1021154,3.74660286 13.6439358,3.94857767 14.2025419,4.16514221 C15.3056616,4.59280779 16.3153822,4.71101279 17.2362499,4.52428722 Z" id="Path-5-Copy-3" stroke="url(#linearGradient-12)" stroke-width="0.5" fill="none" opacity="0.100000001" mask="url(#mask-11)"></path>
                                <path d="M6.28852052,15.4479573 L5.48795124,12.6275507 C5.23059658,11.7057054 4.98425585,10.864865 4.98425585,10.002806 C4.98425585,7.18665491 7.1301454,3.67175478 11.1917497,3.67175478 C12.2085008,3.67175478 13.0658438,3.88774906 13.8491681,4.28660488 C14.5147487,4.62550755 16.2516986,5.03536961 17.6518085,4.67869425 C17.8516679,4.62778043 18.1193189,4.58367998 18.4547612,4.54639292 L19.7910994,4.38775799" id="Shape-Copy-2" stroke="url(#linearGradient-13)" stroke-width="5.08123868" fill="none" opacity="0.400000006" filter="url(#filter-14)" mask="url(#mask-11)"></path>
                                <path d="M6.28852052,15.4479573 L5.48795124,12.6275507 C5.23059658,11.7057054 4.98425585,10.864865 4.98425585,10.002806 C4.98425585,7.18665491 7.1301454,3.67175478 11.1917497,3.67175478 C12.2085008,3.67175478 13.0658438,3.88774906 13.8491681,4.28660488 C14.5147487,4.62550755 16.2516986,5.03536961 17.6518085,4.67869425 C17.8516679,4.62778043 18.1193189,4.58367998 18.4547612,4.54639292 L19.7910994,4.38775799" id="Line" stroke="url(#linearGradient-13)" stroke-width="0.508123868" fill="none" opacity="0.400000006" mask="url(#mask-11)"></path>
                            </g>
                        </g>
                        <g id="7-copy-4" mask="url(#mask-8)">
                            <g transform="translate(-1.182789, 3.418768)">
                                <mask id="mask-17" fill="white">
                                    <use xlink:href="#path-16"></use>
                                </mask>
                                <use id="3" stroke="none" fill="url(#linearGradient-15)" fill-rule="evenodd" xlink:href="#path-16"></use>
                                <path d="M-7.19853285,40.7239632 L35.1219307,40.7239632 L35.1219307,1.00693948 L31.2469085,1.00693948 C30.895383,1.09871093 30.502781,1.14459666 30.0691026,1.14459666 C29.2080432,1.14459666 28.3641188,0.97903701 27.8348689,0.773849535 C26.9725337,0.439526598 26.4062682,1.1579215e-13 24.7868497,1.1579215e-13 C20.906281,1.1579215e-13 18.5793559,3.36533842 18.5793559,6.33105125 C18.5793559,8.60326793 20.0328572,10.3311869 20.0328572,14.1921427 C20.0328572,18.0530986 18.7184161,20.7094922 18.1697937,21.9054373 C17.6211713,23.1013825 15.6200994,26.2522041 12.9856946,27.9980133 C11.8249674,28.7672225 9.27653558,30.4582953 5.34039917,33.0712317 L2.13162821e-14,36.3950177 L-7.19853285,40.7239632 Z" id="3-copy-6" stroke="url(#linearGradient-18)" stroke-width="2.54061934" fill="none" opacity="0.400000006" filter="url(#filter-19)" mask="url(#mask-17)"></path>
                                <path d="M-7.19853285,40.7239632 L35.1219307,40.7239632 L35.1219307,1.00693948 L31.2469085,1.00693948 C30.895383,1.09871093 30.502781,1.14459666 30.0691026,1.14459666 C29.2080432,1.14459666 28.3641188,0.97903701 27.8348689,0.773849535 C26.9725337,0.439526598 26.4062682,1.1579215e-13 24.7868497,1.1579215e-13 C20.906281,1.1579215e-13 18.5793559,3.36533842 18.5793559,6.33105125 C18.5793559,8.60326793 20.0328572,10.3311869 20.0328572,14.1921427 C20.0328572,18.0530986 18.7184161,20.7094922 18.1697937,21.9054373 C17.6211713,23.1013825 15.6200994,26.2522041 12.9856946,27.9980133 C11.8249674,28.7672225 9.27653558,30.4582953 5.34039917,33.0712317 L2.13162821e-14,36.3950177 L-7.19853285,40.7239632 Z" id="3-copy-5" stroke="url(#linearGradient-18)" stroke-width="2.54061934" fill="none" opacity="0.400000006" filter="url(#filter-20)" mask="url(#mask-17)"></path>
                                <path d="M33.4529846,-1.04412736 L31.2469085,1.00693948 C30.0261636,1.9307858 29.0477412,2.16794884 28.0128152,2.21433716 C26.7548182,2.27072417 25.4520388,2.87125517 24.6221993,4.05526917 C23.367791,5.84505737 23.7951207,7.69722481 24.2289541,8.56766935 C24.8249175,9.76341202 25.5322411,11.3434987 25.5322411,14.33159 C25.5322411,18.6859864 23.1694923,22.5682203 20.1471556,24.5937421 C15.8869264,27.4488796 8.9814116,31.9625988 1.18278884,37.0999603 L-3.90214611,40.1405651" id="Path-Copy-2" stroke="url(#linearGradient-21)" stroke-width="2.54061934" fill="none" opacity="0.300000012" filter="url(#filter-22)" mask="url(#mask-17)"></path>
                            </g>
                        </g>
                        <path d="M-0.686332085,38.8382207 L-0.957661848,38.5213277 L-0.905383229,39.1932666 L-0.686332085,38.8382207 Z M11.5856329,2.68136165 L11.6207513,2.46710091 L11.4188018,2.81691811 C11.4744593,2.77134259 11.5300696,2.72615717 11.5856329,2.68136173 Z M31.3190037,3.87359793 C31.8046236,4.92462438 32.107328,6.14011712 32.2300505,7.52123549 L33.3680246,7.41156107 C33.1698041,5.50389313 32.6348807,4.33770299 31.6386303,3.98632909 L31.3190037,3.87359793 Z M0.106668958,39.7643871 C-0.0324240393,39.8558652 -0.172683446,39.9481103 -0.314109258,40.0411226 L0.434219158,40.1469414 L0.106668958,39.7643871 Z" id="Path-2-Copy" stroke="url(#linearGradient-23)" stroke-width="1.1432787" opacity="0.100000001" mask="url(#mask-8)"></path>
                        <g id="Path-4-Copy-2" mask="url(#mask-8)">
                            <g transform="translate(17.962868, 5.941361)">
                                <mask id="mask-26" fill="white">
                                    <use xlink:href="#path-25"></use>
                                </mask>
                                <use id="Path-4-Copy" stroke="none" fill="url(#linearGradient-24)" fill-rule="evenodd" xlink:href="#path-25"></use>
                                <path d="M8.45959453,2.01860893 L7.48046392,0.856490295 L6.91946999,0.239289093 C6.48874957,0.0797630311 6.06266799,-4.63168598e-14 5.64122524,-4.63168598e-14 C5.00906112,-4.63168598e-14 4.41273058,0.175712271 4.02551988,0.372667068 C2.16066201,1.32122738 1.91407979,3.40359962 1.91407979,3.81017571 C1.91407979,4.56343264 2.30187457,5.52924528 2.57300549,6.52884208 C2.84413641,7.52843889 3.40637873,9.19017746 3.40637873,11.7865463 C3.40637873,15.4911326 2.27091916,19.1425696 1.70107024e-13,22.7408573 L0.92038064,24.0678219 L2.17821383,25.9322764" id="S-Copy-6" stroke="url(#linearGradient-27)" stroke-width="1.27030967" fill="none" opacity="0.100000001" mask="url(#mask-26)"></path>
                                <path d="M8.45959453,2.01860893 L7.48046392,0.856490295 L6.91946999,0.239289093 C6.48874957,0.0797630311 6.06266799,-4.63168598e-14 5.64122524,-4.63168598e-14 C5.00906112,-4.63168598e-14 4.41273058,0.175712271 4.02551988,0.372667068 C2.16066201,1.32122738 1.91407979,3.40359962 1.91407979,3.81017571 C1.91407979,4.56343264 2.30187457,5.52924528 2.57300549,6.52884208 C2.84413641,7.52843889 3.40637873,9.19017746 3.40637873,11.7865463 C3.40637873,15.4911326 2.27091916,19.1425696 1.70107024e-13,22.7408573 L0.92038064,24.0678219 L2.17821383,25.9322764" id="S-Copy-14" stroke="url(#linearGradient-28)" stroke-width="1.27030967" fill="none" opacity="0.800000012" filter="url(#filter-29)" mask="url(#mask-26)"></path>
                            </g>
                        </g>
                    </g>
                    <g id="Wings" transform="translate(0.798015, 0.002075)">
                        <g id="3" transform="translate(15.402423, 17.818538) rotate(-40.000000) translate(-15.402423, -17.818538) translate(8.057062, 2.318538)">
                            <mask id="mask-32" fill="white">
                                <use xlink:href="#path-31"></use>
                            </mask>
                            <use id="Path-18-Copy-9" fill="url(#linearGradient-30)" xlink:href="#path-31"></use>
                            <path d="M4.41095991,17.3492816 C3.54859741,11.6965404 5.56085563,7.0638415 5.89041401,6.48230047 C11.1130704,8.69573714 20.2117969,18.5818769 14.5903128,31.4980103 C14.3458605,31.3542043 5.99496756,27.7323691 4.41095991,17.3492816 Z" id="Shadow-2" fill="url(#linearGradient-33)" filter="url(#filter-34)" mask="url(#mask-32)" transform="translate(10.279583, 18.990155) rotate(-10.000000) translate(-10.279583, -18.990155) "></path>
                            <path d="M4.41095991,17.3492816 C3.54859741,11.6965404 5.56085563,7.0638415 5.89041401,6.48230047 C11.1130704,8.69573714 20.2117969,18.5818769 14.5903128,31.4980103 C14.3458605,31.3542043 5.99496756,27.7323691 4.41095991,17.3492816 Z" id="Shadow-1" fill="url(#linearGradient-33)" opacity="0.600000024" filter="url(#filter-35)" mask="url(#mask-32)" transform="translate(10.279583, 18.990155) rotate(-10.000000) translate(-10.279583, -18.990155) "></path>
                            <g id="Path-6-Copy-15" mask="url(#mask-32)">
                                <g transform="translate(-10.018597, -4.070580)">
                                    <g id="Path-6-Copy-23" stroke="none" stroke-width="1" fill="none" fill-rule="evenodd" transform="translate(9.456073, 4.341098)">
                                        <path d="M-5.4206399,-4.52162863 C-0.191840343,-1.4915162 2.41055674,0.057601958 2.38655135,0.125725829 C7.73753839,3.68594783 10.550218,7.90921542 11.4568196,13.8546853 C11.9200422,16.8924865 11.8470388,22.2889748 9.0048163,27.2006084 C8.47672324,27.8549428 7.2154218,29.5025739 5.22091197,32.1435018 C1.23270863,29.5189666 -2.06600091,24.3525849 -4.67521666,16.6443566 C-5.56296915,14.0217299 -5.81144356,6.96640149 -5.4206399,-4.52162863 Z" id="4" stroke="url(#linearGradient-36)" stroke-width="1.77843354" filter="url(#filter-37)"></path>
                                        <path d="M-5.4206399,-4.52162863 C-0.191840343,-1.4915162 2.41055674,0.057601958 2.38655135,0.125725829 C7.73753839,3.68594783 10.550218,7.90921542 11.4568196,13.8546853 C11.9200422,16.8924865 11.8470388,22.2889748 9.0048163,27.2006084 C8.47672324,27.8549428 5.94652638,28.4173682 1.41422573,28.8878848 C-0.0361867854,28.4337609 -2.06600091,24.3525849 -4.67521666,16.6443566 C-5.56296915,14.0217299 -5.81144356,6.96640149 -5.4206399,-4.52162863 Z" id="3" stroke="url(#linearGradient-38)" stroke-width="1.77843354" filter="url(#filter-39)"></path>
                                        <path d="M-5.4206399,-4.52162863 C-0.191840343,-1.4915162 2.41055674,0.057601958 2.38655135,0.125725829 C7.73753839,3.68594783 10.550218,7.90921542 11.4568196,13.8546853 C11.9200422,16.8924865 11.8470388,22.2889748 9.0048163,27.2006084 C8.47672324,27.8549428 7.2154218,29.5025739 5.22091197,32.1435018 C1.23270863,29.5189666 -2.06600091,24.3525849 -4.67521666,16.6443566 C-5.56296915,14.0217299 -5.81144356,6.96640149 -5.4206399,-4.52162863 Z" id="2" stroke="url(#linearGradient-40)" stroke-width="3.55686708" opacity="0.200000003"></path>
                                        <path d="M-5.4206399,-4.52162863 C-0.191840343,-1.4915162 2.41055674,0.057601958 2.38655135,0.125725829 C7.73753839,3.68594783 10.550218,7.90921542 11.4568196,13.8546853 C11.9200422,16.8924865 11.8470388,22.2889748 9.0048163,27.2006084 C8.47672324,27.8549428 7.2154218,29.5025739 5.22091197,32.1435018 C1.23270863,29.5189666 -2.06600091,24.3525849 -4.67521666,16.6443566 C-5.56296915,14.0217299 -5.81144356,6.96640149 -5.4206399,-4.52162863 Z" id="1" stroke="url(#linearGradient-41)" stroke-width="0.508123868"></path>
                                    </g>
                                    <mask id="mask-44" fill="white">
                                        <use xlink:href="#path-43"></use>
                                    </mask>
                                    <use id="3" stroke="none" fill="url(#linearGradient-42)" fill-rule="evenodd" opacity="0.300000012" xlink:href="#path-43"></use>
                                    <mask id="mask-48" fill="white">
                                        <use xlink:href="#path-46"></use>
                                    </mask>
                                    <use id="S-Copy-12" stroke="url(#linearGradient-45)" stroke-width="1.48683439" fill="none" opacity="0.400000006" filter="url(#filter-47)" xlink:href="#path-46"></use>
                                    <mask id="mask-51" fill="white">
                                        <use xlink:href="#path-50"></use>
                                    </mask>
                                    <path stroke="url(#linearGradient-49)" stroke-width="0.5" d="M0.648613942,0.488575076 C0.0181048655,15.6846465 0.155289049,24.640234 1.047711,27.2766553 C2.41437087,31.3140855 6.44174456,34.9431498 13.1456328,38.1492376 C14.7627368,32.4769006 15.6275999,29.4878559 15.7726438,29.0925924 C19.7034741,22.0942792 18.1227931,12.7988582 10.647034,7.83950649 L10.5604848,7.74066376 C10.5389432,7.69644278 6.71068756,4.88263219 0.648613942,0.488575076 Z"></path>
                                </g>
                            </g>
                            <path d="M1.33870163,-0.045102881 L11.5457108,31.7263375 L12.3113651,30.0223886 C15.3218733,23.0487372 14.9519019,16.3188224 11.9144402,10.3774558 C9.50427969,5.66310925 5.4551598,1.76562725 1.89507138,0.243195146 L1.33870163,-0.045102881 Z" id="Shape-Copy-4" stroke="url(#linearGradient-52)" stroke-width="0.5" opacity="0.400000006" mask="url(#mask-32)"></path>
                        </g>
                        <g id="2" transform="translate(20.182087, 15.240604) rotate(-20.000000) translate(-20.182087, -15.240604) translate(13.816108, 2.240604)">
                            <mask id="mask-55" fill="white">
                                <use xlink:href="#path-54"></use>
                            </mask>
                            <use id="Path-18-Copy-9" fill="url(#linearGradient-53)" xlink:href="#path-54"></use>
                            <path d="M3.88142059,14.3618293 C3.14243486,9.54474594 4.88878041,5.59323391 5.17457036,5.09709798 C9.68951533,6.97671324 17.5478566,15.3911004 12.6692632,26.4080752 C12.4579857,26.2858292 5.2388069,23.2099608 3.88142059,14.3618293 Z" id="Shadow-2" fill="url(#linearGradient-56)" filter="url(#filter-57)" mask="url(#mask-55)" transform="translate(8.955892, 15.752587) rotate(-15.000000) translate(-8.955892, -15.752587) "></path>
                            <path d="M3.88142059,14.3618293 C3.14243486,9.54474594 4.88878041,5.59323391 5.17457036,5.09709798 C9.68951533,6.97671324 17.5478566,15.3911004 12.6692632,26.4080752 C12.4579857,26.2858292 5.2388069,23.2099608 3.88142059,14.3618293 Z" id="Shadow-1" fill="url(#linearGradient-56)" opacity="0.600000024" filter="url(#filter-58)" mask="url(#mask-55)" transform="translate(8.955892, 15.752587) rotate(-15.000000) translate(-8.955892, -15.752587) "></path>
                            <g id="Path-6-Copy-15" mask="url(#mask-55)">
                                <g transform="translate(-0.481607, 0.262970)">
                                    <g id="Path-6-Copy-22" stroke="none" stroke-width="1" fill="none" fill-rule="evenodd" transform="translate(-4.944440, -3.997641)">
                                        <mask id="mask-61" fill="white">
                                            <use xlink:href="#path-60"></use>
                                        </mask>
                                        <use id="Path-6-Copy-16" fill="url(#linearGradient-59)" opacity="0.200000003" xlink:href="#path-60"></use>
                                        <mask id="mask-65" fill="white">
                                            <use xlink:href="#path-63"></use>
                                        </mask>
                                        <use id="4" stroke="url(#linearGradient-62)" stroke-width="1.52437166" filter="url(#filter-64)" xlink:href="#path-63"></use>
                                        <mask id="mask-69" fill="white">
                                            <use xlink:href="#path-67"></use>
                                        </mask>
                                        <use id="3" stroke="url(#linearGradient-66)" stroke-width="1.52437166" filter="url(#filter-68)" xlink:href="#path-67"></use>
                                        <mask id="mask-72" fill="white">
                                            <use xlink:href="#path-71"></use>
                                        </mask>
                                        <use id="2" stroke="url(#linearGradient-70)" stroke-width="3.04874334" opacity="0.200000003" xlink:href="#path-71"></use>
                                        <mask id="mask-75" fill="white">
                                            <use xlink:href="#path-74"></use>
                                        </mask>
                                        <use id="1" stroke="url(#linearGradient-73)" stroke-width="0.508123868" opacity="0.800000012" xlink:href="#path-74"></use>
                                    </g>
                                    <mask id="mask-78" fill="white">
                                        <use xlink:href="#path-77"></use>
                                    </mask>
                                    <use id="3-copy-8" stroke="none" fill="url(#linearGradient-76)" fill-rule="evenodd" opacity="0.300000012" xlink:href="#path-77"></use>
                                    <mask id="mask-82" fill="white">
                                        <use xlink:href="#path-80"></use>
                                    </mask>
                                    <use id="S-Copy-12" stroke="url(#linearGradient-79)" stroke-width="1.27030967" fill="none" opacity="0.400000006" filter="url(#filter-81)" xlink:href="#path-80"></use>
                                    <mask id="mask-85" fill="white">
                                        <use xlink:href="#path-84"></use>
                                    </mask>
                                    <path stroke="url(#linearGradient-83)" stroke-width="0.5" d="M-7.5963782,-3.27014158 C-8.13798824,9.64558767 -8.01855133,17.2620853 -7.2507653,19.5002967 C-6.07563595,22.9259749 -2.61258959,26.0099571 3.15391889,28.7370244 C4.54537325,23.9209742 5.28876413,21.3860488 5.41693252,21.0427442 C8.80527563,15.0900607 7.44288007,7.18428702 0.997711738,2.96518344 L0.910464803,2.86668069 C0.896486155,2.83836467 -2.46488387,0.400471083 -7.5963782,-3.27014158 Z"></path>
                                </g>
                            </g>
                            <path d="M1.20650088,0.014194438 L9.97573485,26.9491567 L10.6017316,25.57445 C13.1991902,19.6371996 12.8800787,13.9092352 10.2597014,8.85150485 C8.18017819,4.83770586 4.6862091,1.51907569 1.61406247,0.222589645 L1.20650088,0.014194438 Z" id="Line" stroke="url(#linearGradient-86)" stroke-width="0.5" opacity="0.400000006" mask="url(#mask-55)"></path>
                        </g>
                        <g id="1" transform="translate(14.723310, 4.159373)">
                            <mask id="mask-89" fill="white">
                                <use xlink:href="#path-88"></use>
                            </mask>
                            <use id="Shape" fill="url(#linearGradient-87)" xlink:href="#path-88"></use>
                            <g id="Part-3" mask="url(#mask-89)">
                                <g transform="translate(-0.000000, 0.000000)">
                                    <g id="Path-18-Copy-29" stroke="none" stroke-width="1" fill-rule="evenodd" transform="translate(0.000000, 16.357281)">
                                        <mask id="mask-92" fill="white">
                                            <use xlink:href="#path-91"></use>
                                        </mask>
                                        <use id="Shadow-2" fill="url(#linearGradient-90)" opacity="0.200000003" xlink:href="#path-91"></use>
                                        <path d="M-0.27082139,-6.81611651 C-1.01646218,-11.6377101 0.722776676,-15.5893449 1.00762774,-16.0853951 C5.52220965,-14.1975935 13.3875767,-5.76534202 8.52880389,5.25196035 C8.3174923,5.12930721 1.0987891,2.04029962 -0.27082139,-6.81611651 Z" id="Shadow-1" fill="#000000" opacity="0.400000006" filter="url(#filter-93)" mask="url(#mask-92)" transform="translate(4.802116, -5.416717) rotate(-10.000000) translate(-4.802116, 5.416717) "></path>
                                    </g>
                                    <path d="M6.44154862,0 C9.9921983,1.49609782 15.624137,7.04315822 15.5336457,14.6927159 C15.5089893,16.7770113 15.0499706,19.1503906 14.0272943,21.3744639 C12.3884372,24.9385811 10.0328298,27.2155292 8.74475712,28.0762827 C6.12640881,29.8259919 3.49765312,31.5415712 4.5361873e-13,33.848687" id="Shape-Copy-6" stroke="url(#linearGradient-94)" stroke-width="5.08123868" opacity="0.400000006" filter="url(#filter-95)"></path>
                                    <path d="M6.44154862,0 C9.9921983,1.49609782 15.624137,7.04315822 15.5336457,14.6927159 C15.5089893,16.7770113 15.0499706,19.1503906 14.0272943,21.3744639 C12.3884372,24.9385811 10.0328298,27.2155292 8.74475712,28.0762827 C6.12640881,29.8259919 3.49765312,31.5415712 4.5361873e-13,33.848687" id="Shape" stroke="url(#linearGradient-94)" stroke-width="0.508123868" opacity="0.400000006"></path>
                                </g>
                            </g>
                            <g id="Part-2" mask="url(#mask-89)">
                                <g transform="translate(0.077902, -4.401418)">
                                    <mask id="mask-97" fill="white">
                                        <use xlink:href="#path-96"></use>
                                    </mask>
                                    <g id="Mask" stroke="none" fill="none"></g>
                                    <path d="M6.21925258,4.69187479 C11.4549714,8.71257091 12.632667,12.6176248 12.632667,17.5700048 C12.632667,22.5223848 10.7627515,26.3505918 8.50252679,28.8362275 C6.97145812,30.5199887 5.38949375,31.7524216 3.75663367,32.533526 L-5.67023413e-15,35.0659465 L-5.67023413e-15,-2.31584299e-14 C4.11818342,3.10642588 6.19126762,4.67038414 6.21925258,4.69187479 Z" id="S-4" stroke="url(#linearGradient-98)" stroke-width="1.27030967" fill="none" opacity="0.300000012" filter="url(#filter-99)" mask="url(#mask-97)"></path>
                                    <path d="M6.21925258,4.69187479 C11.4549714,8.71257091 12.632667,12.6176248 12.632667,17.5700048 C12.632667,22.5223848 10.7627515,26.3505918 8.50252679,28.8362275 C6.97145812,30.5199887 5.38949375,31.7524216 3.75663367,32.533526 L-5.67023413e-15,35.0659465 L-5.67023413e-15,-2.31584299e-14 C4.11818342,3.10642588 6.19126762,4.67038414 6.21925258,4.69187479 Z" id="S-3" stroke="url(#linearGradient-100)" stroke-width="1.27030967" fill="none" opacity="0.300000012" filter="url(#filter-101)" mask="url(#mask-97)"></path>
                                    <path d="M6.21925258,4.69187479 C11.4549714,8.71257091 12.632667,12.6176248 12.632667,17.5700048 C12.632667,22.5223848 10.7627515,26.3505918 8.50252679,28.8362275 C6.97145812,30.5199887 5.38949375,31.7524216 3.75663367,32.533526 L-5.67023413e-15,35.0659465 L-5.67023413e-15,-2.31584299e-14 C4.11818342,3.10642588 6.19126762,4.67038414 6.21925258,4.69187479 Z" id="S-2" stroke="url(#linearGradient-102)" stroke-width="2.54061934" fill="none" opacity="0.100000001" mask="url(#mask-97)"></path>
                                    <path d="M6.21925258,4.69187479 C11.4549714,8.71257091 12.632667,12.6176248 12.632667,17.5700048 C12.632667,22.5223848 10.7627515,26.3505918 8.50252679,28.8362275 C6.97145812,30.5199887 5.38949375,31.7524216 3.75663367,32.533526 L-5.67023413e-15,35.0659465 L-5.67023413e-15,-2.31584299e-14 C4.11818342,3.10642588 6.19126762,4.67038414 6.21925258,4.69187479 Z" id="S-1" stroke="url(#linearGradient-103)" stroke-width="0.508123868" fill="none" opacity="0.100000001" mask="url(#mask-97)"></path>
                                </g>
                            </g>
                            <g id="Part-1" mask="url(#mask-89)">
                                <g transform="translate(2.935236, 0.611011)">
                                    <mask id="mask-105" fill="white">
                                        <use xlink:href="#path-104"></use>
                                    </mask>
                                    <g id="Mask" stroke="none" fill="none"></g>
                                    <path d="M2.52431794,23.8955461 C5.95008379,20.9975269 7.66296672,17.2205872 7.66296672,12.5647268 C7.66296672,8.3432193 6.56096385,6.04090311 5.24378093,4.43344384 C4.38190114,3.38162587 3.49549345,2.5140959 2.63020003,1.8275036 C2.35501271,1.60098302 1.61692299,0.99619595 0.415930863,0.013142391 C-0.291596858,2.42100477 -0.0212096798,5.77536436 1.2270924,10.0762211 C2.47539448,14.3770779 2.2050073,19.496223 0.415930863,25.4336563 L2.52431794,23.8955461 Z" id="Path-7-Copy" stroke="none" fill="url(#linearGradient-106)" fill-rule="evenodd" opacity="0.300000012" mask="url(#mask-105)"></path>
                                    <path d="M2.52431794,23.8955461 C5.95008379,20.9975269 7.66296672,17.2205872 7.66296672,12.5647268 C7.66296672,8.3432193 6.56096385,6.04090311 5.24378093,4.43344384 C4.38190114,3.38162587 3.49549345,2.5140959 2.63020003,1.8275036 C2.35501271,1.60098302 1.61692299,0.99619595 0.415930863,0.013142391 C-0.291596858,2.42100477 -0.0212096798,5.77536436 1.2270924,10.0762211 C2.47539448,14.3770779 2.2050073,19.496223 0.415930863,25.4336563 L2.52431794,23.8955461 Z" id="Path-7-Copy-2" stroke="url(#linearGradient-107)" stroke-width="1.27030967" fill="none" opacity="0.400000006" filter="url(#filter-108)" mask="url(#mask-105)"></path>
                                    <path d="M2.52431794,23.8955461 C5.95008379,20.9975269 7.66296672,17.2205872 7.66296672,12.5647268 C7.66296672,8.3432193 6.56096385,6.04090311 5.24378093,4.43344384 C4.38190114,3.38162587 3.49549345,2.5140959 2.63020003,1.8275036 C2.35501271,1.60098302 1.61692299,0.99619595 0.415930863,0.013142391 C-0.291596858,2.42100477 -0.0212096798,5.77536436 1.2270924,10.0762211 C2.47539448,14.3770779 2.2050073,19.496223 0.415930863,25.4336563 L2.52431794,23.8955461 Z" id="Path-7-Copy-4" stroke="url(#linearGradient-109)" stroke-width="0.508123868" fill="none" opacity="0.400000006" mask="url(#mask-105)"></path>
                                </g>
                            </g>
                        </g>
                    </g>
                </g>
            </g>
        </g>
    </g>
</svg>